<svg xmlns="http://www.w3.org/2000/svg" version="1.1" xmlns:xlink="http://www.w3.org/1999/xlink" width="512" height="512" x="0" y="0" viewBox="0 0 32 32" style="enable-background:new 0 0 512 512" xml:space="preserve" class=""><g><path d="M21.71 10.29a1 1 0 0 0-1.42 0L16 14.59l-4.29-4.3a1 1 0 0 0-1.42 1.42l4.3 4.29-4.3 4.29a1 1 0 0 0 1.42 1.42l4.29-4.3 4.29 4.3a1 1 0 0 0 1.42-1.42L17.41 16l4.3-4.29a1 1 0 0 0 0-1.42z" fill="#8538f2" opacity="1" data-original="#000000" class=""></path><path d="M21 2H11a9 9 0 0 0-9 9v10a9 9 0 0 0 9 9h10a9 9 0 0 0 9-9V11a9 9 0 0 0-9-9zm7 19a7 7 0 0 1-7 7H11a7 7 0 0 1-7-7V11a7 7 0 0 1 7-7h10a7 7 0 0 1 7 7z" fill="#8538f2" opacity="1" data-original="#000000" class=""></path></g></svg>