<svg xmlns="http://www.w3.org/2000/svg" version="1.1" xmlns:xlink="http://www.w3.org/1999/xlink" width="512" height="512" x="0" y="0" viewBox="0 0 24 24" style="enable-background:new 0 0 512 512" xml:space="preserve" class=""><g><path d="M22 9c0 1.826-1.537 1.992-2 2h-5a1 1 0 0 1-1-1V8c0-1 1-1 1-1 .041-.037.274.253.33.235.911.732 2.088.955 3.244.599a3.45 3.45 0 0 0 2.237-2.175c.381-1.152.178-2.37-.541-3.299-.827-1.068-2.217-1.583-3.538-1.271C15.487-.081 13.484-.323 12 .546c-1.483-.868-3.486-.626-4.731.542a3.413 3.413 0 0 0-1.987.135c-1.108.411-1.95 1.37-2.197 2.502a3.518 3.518 0 0 0 .689 2.97 3.485 3.485 0 0 0 2.727 1.306c.572 0 1.389-.138 2.202-.76.044.015.298-.24.298-.24s1 0 1 1v2a1 1 0 0 1-1 1H4.007c-.471-.008-2.007-.174-2.007-2H0v3c0 6.627 5.373 12 12 12s12-5.373 12-12v-3h-2ZM7 14.5a1.5 1.5 0 1 1 3.001.001A1.5 1.5 0 0 1 7 14.5ZM9 20a3 3 0 1 1 6 0H9Zm6.5-4a1.5 1.5 0 1 1 .001-3.001A1.5 1.5 0 0 1 15.5 16Z" fill="#ffffff" opacity="0.6784313725490196" data-original="#000000" class=""></path></g></svg>