<svg xmlns="http://www.w3.org/2000/svg" version="1.1" xmlns:xlink="http://www.w3.org/1999/xlink" width="512" height="512" x="0" y="0" viewBox="0 0 24 24" style="enable-background:new 0 0 512 512" xml:space="preserve" class=""><g><path d="M22.773 7.721A4.994 4.994 0 0 0 19 6h-3.989l.336-2.041a3.037 3.037 0 0 0-5.721-1.837L8 5.417V21h10.3a5.024 5.024 0 0 0 4.951-4.3l.705-5a4.994 4.994 0 0 0-1.183-3.979ZM0 11v5a5.006 5.006 0 0 0 5 5h1V6H5a5.006 5.006 0 0 0-5 5Z" fill="#8538f2" opacity="1" data-original="#000000" class=""></path></g></svg>